<?xml version="1.0" encoding="utf-8"?>
<!-- Generator: Adobe Illustrator 23.0.6, SVG Export Plug-In . SVG Version: 6.00 Build 0)  -->
<svg version="1.1" id="Layer_1" xmlns="http://www.w3.org/2000/svg" xmlns:xlink="http://www.w3.org/1999/xlink" x="0px" y="0px"
	 viewBox="0 0 210.8 311.2" style="enable-background:new 0 0 210.8 311.2;" xml:space="preserve">
<style type="text/css">
	.st0{fill:#FFFFFF;}
</style>
<path class="st0" d="M105.7,152c-19.4,0.2-38.9-0.7-58.2-2.6c-7.8-0.7-15.5-1.9-23.2-3.5c-16.9-4-27.4-20.9-23.4-37.8
	c2.3-10,9.4-18.2,18.9-22c2.5-1,2.9-2.3,2.9-4.7C23,38.8,55,10.4,83,2.9c46-12.3,92.6,15.3,103.3,61.5c1.4,6,2,12.1,1.9,18.3
	c-0.2,1.3,0.7,2.6,2,2.9c13.7,5.1,21.8,18.2,20.5,33c-1.1,13.5-12.2,25.2-26.1,27.8c-17.3,3.2-34.8,4.4-52.3,5.2
	C123.4,151.9,114.6,152,105.7,152z M105.3,280.6c2.7-6.9,5.2-13.3,7.7-19.7c11.5-29.4,22.9-58.8,34.4-88.2c0.4-1.5,1.8-2.5,3.3-2.4
	c8.8-0.5,17.6-1.6,26.8-2.9c-1.8,4.7-3.5,9.1-5.2,13.4c-15.2,38.9-30.4,77.8-45.6,116.7c-3.3,8.3-9.7,12.3-18.1,13.4
	c-7.6,1-14.6-0.7-20.3-6.1c-1.8-1.6-3.1-3.6-4-5.9C67.6,256,50.9,213.1,34.1,170.1c-0.3-0.8-0.6-1.6-1-2.6c4.3,0.5,8.3,1,12.4,1.5
	c4.6,0.5,9.1,1.1,13.7,1.3c2.3,0.1,3.4,0.9,4.2,3c12,31,24.1,62,36.2,92.9C101.5,270.8,103.3,275.4,105.3,280.6z"/>
</svg>
